<svg xmlns="http://www.w3.org/2000/svg" width="24" height="24" viewBox="0 0 24 24">
    <g fill="#fff">
        <path d="M548.942 17.956a2.981 2.981 0 0 0-2.508 1.369l-4.685-2.109a2.924 2.924 0 0 0-.069-1.735l4.887-2.688a2.976 2.976 0 1 0-.464-.881l-4.9 2.7a2.985 2.985 0 1 0 .142 3.517l4.7 2.114a2.985 2.985 0 1 0 2.9-2.283zm-1.991-6.969a1.983 1.983 0 1 1 .05.432 1.993 1.993 0 0 1-.05-.432zm-8.09 7.467a1.99 1.99 0 1 1 1.923-2.481 1.967 1.967 0 0 1 .068.49 2.01 2.01 0 0 1-.034.335 2.011 2.011 0 0 1-1.957 1.656zm10.081 4.48a1.993 1.993 0 0 1-1.991-1.991 1.93 1.93 0 0 1 .028-.281 2 2 0 0 1 1.963-1.71 1.991 1.991 0 0 1 0 3.983z" transform="translate(-528) translate(-3.954 -4.017)"/>
    </g>
</svg>
