<svg xmlns="http://www.w3.org/2000/svg" width="24" height="24" viewBox="0 0 24 24">
    <g>
        <path fill="#ff5c53" d="M971.441 10.862A3.6 3.6 0 0 1 974 11.923l.66.66.708.708.707-.708.548-.548a3.9 3.9 0 0 1 2.738-1.139 3.462 3.462 0 0 1 2.321.86 3.624 3.624 0 0 1 .177 5.29l-6.491 6.491-6.38-6.379a3.712 3.712 0 0 1-.277-5.058 3.635 3.635 0 0 1 2.728-1.238m0-1a4.612 4.612 0 0 0-3.479 1.578 4.727 4.727 0 0 0 .321 6.425l6.434 6.433a.924.924 0 0 0 1.307 0l6.544-6.544a4.624 4.624 0 0 0-.225-6.749 4.487 4.487 0 0 0-2.978-1.105 4.889 4.889 0 0 0-3.444 1.432l-.548.548-.661-.661a4.61 4.61 0 0 0-3.269-1.354z" transform="translate(-959.923 -.569) translate(-3.465 -4.647)"/>
    </g>
</svg>
