<svg xmlns="http://www.w3.org/2000/svg" width="52" height="26" viewBox="0 0 52 26">
    <defs>
        <style>
            .cls-2{fill:#2b2b2b}
        </style>
    </defs>
    <g id="그룹_12820" transform="translate(-20 -15)">
        <g id="그룹_413" transform="translate(-756.787 -942.688)">
            <g id="그룹_1" transform="translate(776.787 958.731)">
                <path id="패스_1" d="M778.173 959.6c1.085-.063 1.628-.092 2.713-.146v2.624c.508-.02.763-.029 1.271-.047v-2.384c1.458-.065 2.188-.094 3.647-.144v2.415l1.176-.03v-2.678c1.6-.05 2.4-.07 4.009-.1v13.314q-7.1-.019-14.2-.079v-11.227a1.515 1.515 0 0 1 1.384-1.518zm4.032 14.175q5.616.058 11.232.084a4.67 4.67 0 1 1 0 9.34c-3.749-.07-7.485-.184-11.232-.342a4.772 4.772 0 0 1-4.651-4.7 4.389 4.389 0 0 1 4.646-4.378zm-1.319-5.188l1.271-.012v-2.765l-1.271.026zm10.966 10.735c.673.008 1.009-.275 1.009-.8s-.336-.837-1.009-.844c-3.236-.032-4.854-.059-8.088-.137-.575-.014-.912.283-.912.792s.336.8.912.816c3.236.104 4.852.138 8.088.177zM785.8 965.75v2.8l1.176-.008v-2.81zm8.206-6.92c1.462-.015 2.192-.019 3.654-.018v4.549c.9 0 1.354 0 2.257.006v4.729h-2.257v5.255c-2.017 0-3.026 0-5.043-.008v-12.989a1.473 1.473 0 0 1 1.393-1.524z" class="cls-2" transform="translate(-776.787 -958.812)"/>
                <path id="패스_2" d="M869.437 972.795q-7.589.521-15.178 1.035v-14.8q6.611.16 13.213.581v3.868c-3.146-.132-4.72-.186-7.868-.269v5.947q4.915-.258 9.833-.461zm-17.849 2.023q12.141-.089 24.276-.411v6.261a1.524 1.524 0 0 1-1.386 1.47c-1.676.146-2.514.214-4.192.339v-4q-9.349.416-18.7.557zm13.989-10.73c1.981.069 2.972.108 4.952.194v-4.826c1.58.119 2.37.183 3.949.321a1.524 1.524 0 0 1 1.386 1.47v12.572c-2.133.05-3.2.074-5.335.115v-5.708c-1.98-.035-2.97-.051-4.952-.079z" class="cls-2" transform="translate(-825.631 -958.956)"/>
            </g>
            <path id="패스_3" d="M823.837 958.688a1.388 1.388 0 0 0-1.4 1.388V983.1l13.059.028a1.388 1.388 0 0 0 1.391-1.388v-22.902z" class="cls-2" transform="translate(-29.806 0)"/>
            <path id="패스_4" fill="#fff" d="M840.568 983.373l-8.057-3.484a1.924 1.924 0 0 1-1.279-1.868v-13.786a1.925 1.925 0 0 1 1.281-1.869l8.055-3.334z" transform="translate(-35.552 -0.225)"/>
            <circle id="타원_1" cx="1.203" cy="1.203" r="1.203" class="cls-2" transform="translate(796.354 969.397)"/>
            <path id="패스_5" d="M850.636 1015.624a.174.174 0 0 1-.173-.173v-6.569a.173.173 0 1 1 .347 0v6.569a.173.173 0 0 1-.174.173z" class="cls-2" transform="translate(-48.109 -32.663)"/>
            <path id="패스_6" d="M853.326 1012.78a.173.173 0 0 1-.174-.173v-8.08a.174.174 0 0 1 .347 0v8.08a.174.174 0 0 1-.173.173z" class="cls-2" transform="translate(-49.866 -29.819)"/>
            <path id="패스_7" d="M855.79 1012.78a.173.173 0 0 1-.174-.173v-8.08a.174.174 0 0 1 .347 0v8.08a.174.174 0 0 1-.173.173z" class="cls-2" transform="translate(-51.474 -29.819)"/>
        </g>
    </g>
</svg>
