<svg xmlns="http://www.w3.org/2000/svg" width="24" height="24" viewBox="0 0 24 24">
    <defs>
        <style>
            .cls-2{fill:#2b2b2b}
        </style>
    </defs>
    <g id="그룹_12568" transform="translate(-768 -336.413)">
        <g id="그룹_12567" transform="translate(772.069 340.323)">
            <path id="패스_637" d="M784.138 344.5a8.138 8.138 0 1 0 8.138 8.138 8.138 8.138 0 0 0-8.138-8.138zm.509 15.232v-2.771h-1.017v2.771a7.12 7.12 0 0 1-6.6-6.84h2.53v-1.017h-2.5a7.126 7.126 0 0 1 6.57-6.332v2.263h1.017v-2.263a7.126 7.126 0 0 1 6.57 6.332h-2.5v1.017h2.53a7.12 7.12 0 0 1-6.601 6.84z" class="cls-2" transform="translate(-776 -344.5)"/>
            <circle id="타원_161" cx="2.543" cy="2.543" r="2.543" class="cls-2" transform="translate(5.595 5.595)"/>
        </g>
    </g>
</svg>
