<svg xmlns="http://www.w3.org/2000/svg" width="32" height="32" viewBox="0 0 32 32">
    <g fill="#ebebeb">
        <path d="M1074.667 540.876l2.331 4.453.295.564.624.125 4.873.979-3.435 3.849-.4.449.071.6.617 5.154-4.385-2.167-.591-.292-.591.292-4.385 2.167.617-5.154.071-.6-.4-.449-3.434-3.846 4.873-.979.624-.125.295-.564 2.331-4.453m0-2.876l-3.512 6.711-7.156 1.435 4.985 5.585-.911 7.6 6.593-3.259 6.593 3.259-.911-7.6 4.985-5.585-7.155-1.438-3.512-6.711z" transform="translate(-282 -677) translate(-776.667 144.333)"/>
    </g>
</svg>
