<svg xmlns="http://www.w3.org/2000/svg" width="24" height="24" viewBox="0 0 24 24">
    <g fill="#fff">
        <path d="M643.832 23.475a1.442 1.442 0 0 1-.7-.18l-3.454-1.9a.2.2 0 0 0-.2 0l-3.453 1.9a1.434 1.434 0 0 1-1.531-.088 1.526 1.526 0 0 1-.621-1.508l.66-4.017a.284.284 0 0 0-.073-.241l-2.786-2.841a1.542 1.542 0 0 1-.359-1.576 1.484 1.484 0 0 1 1.182-1.011l3.861-.586a.234.234 0 0 0 .171-.135l1.727-3.655a1.459 1.459 0 0 1 2.657 0l1.727 3.655a.232.232 0 0 0 .171.135l3.861.586a1.483 1.483 0 0 1 1.181 1.011 1.541 1.541 0 0 1-.359 1.576l-2.794 2.84a.283.283 0 0 0-.073.241l.66 4.018a1.526 1.526 0 0 1-.621 1.508 1.443 1.443 0 0 1-.834.268zm-4.248-3.085a1.188 1.188 0 0 1 .571.147l3.454 1.9a.449.449 0 0 0 .491-.029.546.546 0 0 0 .219-.547l-.66-4.017a1.26 1.26 0 0 1 .341-1.092l2.793-2.845a.556.556 0 0 0 .128-.577.5.5 0 0 0-.4-.35l-3.861-.586a1.213 1.213 0 0 1-.912-.687l-1.727-3.655a.477.477 0 0 0-.88 0l-1.727 3.655a1.212 1.212 0 0 1-.911.687l-3.862.586a.5.5 0 0 0-.4.35.556.556 0 0 0 .127.577l2.794 2.845a1.261 1.261 0 0 1 .34 1.089l-.659 4.017a.544.544 0 0 0 .219.547.451.451 0 0 0 .491.029l3.453-1.9a1.192 1.192 0 0 1 .579-.144z" transform="translate(-624) translate(-3.681 -3.448)"/>
    </g>
</svg>
